<svg id="Camada_1" data-name="Camada 1" xmlns="http://www.w3.org/2000/svg" viewBox="0 0 503.45 447.39">
  <path d="M838.72,620.3h-1.94l-.49-.3c-60.39-38-111.11-78.4-150.74-120.19-31.75-33.48-56.5-67.9-73.57-102.32-28.63-57.72-25.94-95.27-25.68-98.13,0-69.73,56.78-126.45,126.53-126.45A126.73,126.73,0,0,1,838,280.92c9.41-60.53,61.89-107,125-107a126.67,126.67,0,0,1,126.53,126.52v11.28l-.38-1c-.89,15.59-5.54,46.21-25.67,86.8-17.07,34.42-41.82,68.84-73.57,102.32C950.32,541.6,899.6,582,839.21,620ZM588.27,299.43l2,.2c0,.38-3.34,38.57,25.45,96.43,26.56,53.4,86.64,134.89,222,220.13,135.37-85.24,195.45-166.73,222-220.13,28.79-57.86,25.49-96.05,25.45-96.43l-1.51-15.57,1.16,3.17a122.53,122.53,0,0,0-244.35,13.2h0l-5.15-.09v-.91a122.53,122.53,0,0,0-245.06,0Z" transform="translate(-586.12 -172.91)"/>
</svg>
