<svg id="Camada_1" data-name="Camada 1" xmlns="http://www.w3.org/2000/svg" viewBox="0 0 376.48 70.71">
  <g>
    <path d="M414.4,201.29a13.74,13.74,0,0,1-1.22,4.46c-.39,1-.77,1.84-1.14,2.57a12.75,12.75,0,0,1-1.09,1.85q-3,4.25-9.76,8.83a130.05,130.05,0,0,1-13.58,8q-4.47,2.31-8.9,4.14t-8.94,3.26a3.26,3.26,0,0,0-.25,1.64v1.39c0,.78,0,1.87.12,3.26s.2,3.09.34,5.11.25,3.81.34,5.36.12,2.93.12,4.1a3.35,3.35,0,0,1-1,2.53,3.55,3.55,0,0,1-2.57.92q-4.64,0-4.63-20.06v-1.22a46.82,46.82,0,0,1,.3-5.09q.29-2.73.8-6.6c.14-.82.27-1.66.4-2.53s.26-1.79.4-2.77c.28-1.94.54-3.61.79-5s.57-2.76.93-4.08c.08-.37.18-.8.29-1.3s.24-1.08.38-1.73c.28-1.29.58-2.42.89-3.41a16.78,16.78,0,0,1,1.17-2.77,12.11,12.11,0,0,1,1.81-2.53,4.38,4.38,0,0,1,1.48-.25,2.85,2.85,0,0,1,2.33.95,3.93,3.93,0,0,1,.78,2.58,8.09,8.09,0,0,1-.32,1.29c-.21.71-.45,1.48-.71,2.29s-.52,1.58-.76,2.31-.39,1.18-.44,1.35a14,14,0,0,0-.63,2.4c-.14.81-.29,1.64-.44,2.5s-.32,1.76-.49,2.71-.31,1.86-.44,2.8-.23,1.84-.32,2.69-.16,1.66-.23,2.4-.12,1.38-.14,1.91c.89-.39,2-.85,3.26-1.38l4.43-1.85q5-2.07,8.84-3.92a84.22,84.22,0,0,0,7.61-4.08A41.61,41.61,0,0,0,399,213a54.1,54.1,0,0,0,4.48-4q4.38-4.45,4.38-8.28,0-1.77-3.45-2.7a31.79,31.79,0,0,0-3.49-.73c-1.18-.19-2.34-.33-3.49-.42s-2.27-.16-3.35-.19-2.08,0-3,0a92.73,92.73,0,0,0-17.58,1.81,122.68,122.68,0,0,0-12.74,3.79,4.6,4.6,0,0,1-1.48.38,2.16,2.16,0,0,1-1.53-.57,1.94,1.94,0,0,1-.61-1.49,4.64,4.64,0,0,1,1.2-3.33,10.35,10.35,0,0,1,3.47-2.23,43.63,43.63,0,0,1,7.57-2.14c1.71-.37,3.43-.68,5.15-1s3.47-.51,5.24-.73a73.72,73.72,0,0,1,7.95-.63c1.51,0,3,0,4.4,0s2.8.09,4.16.19,2.72.25,4.08.46,2.74.48,4.14.82a17.93,17.93,0,0,1,7.07,3.28A7.18,7.18,0,0,1,414.4,201.29Z" transform="translate(-357.11 -188.04)"/>
    <path d="M464.2,227.92c0,1.32-.79,3.38-2.39,6.18a20.17,20.17,0,0,1-1.29,1.92q-.81,1.11-1.83,2.31c-.67.8-1.37,1.61-2.1,2.44s-1.44,1.59-2.14,2.29a40.06,40.06,0,0,1-3.52,3.12,31.78,31.78,0,0,1-4,2.73,23.31,23.31,0,0,1-4.37,2,14.23,14.23,0,0,1-4.44.73,14,14,0,0,1-5.42-1,11.56,11.56,0,0,1-4.4-3.24,15.78,15.78,0,0,1-2.94-5.49,25.16,25.16,0,0,1-1.08-7.8q0-3.08.3-6.41c.19-2.23.45-4.47.75-6.71s.66-4.47,1-6.67.76-4.33,1.15-6.37c.25-1.41.47-2.56.65-3.45s.35-1.73.49-2.48.26-1.53.38-2.3.25-1.73.42-2.88c.11-.78.21-1.48.31-2.08s.18-1.1.23-1.49a9,9,0,0,1,.57-1.94,6.45,6.45,0,0,1,1-1.64,4.79,4.79,0,0,1,1.41-1.14,3.73,3.73,0,0,1,1.77-.42,3.15,3.15,0,0,1,3,1.9c-.16.87-.34,1.7-.52,2.5s-.35,1.65-.49,2.54q-1.05,5.31-1.72,8.59c-.45,2.18-.77,3.73-1,4.62l-1.07,5.72q-.57,3.08-1.05,6.27c-.32,2.13-.58,4.24-.78,6.31s-.29,4-.29,5.81a27.5,27.5,0,0,0,.46,5.27,12.08,12.08,0,0,0,1.49,4.06,7.36,7.36,0,0,0,2.65,2.61,7.77,7.77,0,0,0,3.93.93,11.75,11.75,0,0,0,5-1.12,24.34,24.34,0,0,0,4.69-2.84,40.16,40.16,0,0,0,4.27-3.8c1.34-1.39,2.58-2.73,3.7-4,.9-1.07,1.68-2,2.35-2.76s1.24-1.42,1.69-1.95.78-.86,1.24-1.31a2,2,0,0,1,1.28-.67C464,226.7,464.2,227.11,464.2,227.92Z" transform="translate(-357.11 -188.04)"/>
    <path d="M523.05,224.77a7.12,7.12,0,0,1-.12,1.19,12.15,12.15,0,0,1-.36,1.41c-.16.48-.32.94-.51,1.37a4.57,4.57,0,0,1-.56,1c-.17.23-.42.53-.74.91l-1.07,1.24c-.4.45-.82.92-1.29,1.41s-.94,1-1.45,1.41q-2.61,2.38-5.11,4.64a41.82,41.82,0,0,1-5.15,4,26.16,26.16,0,0,1-5.53,2.75,17.67,17.67,0,0,1-6.25,1,9.14,9.14,0,0,1-3.13-.57,10.78,10.78,0,0,1-3-1.62,11.07,11.07,0,0,1-2.4-2.52,9.64,9.64,0,0,1-1.43-3.24c-.81.84-1.66,1.72-2.56,2.63s-1.83,1.83-2.8,2.76-2,1.82-3,2.69a35.93,35.93,0,0,1-3.19,2.4c-.62.39-1.36.81-2.21,1.26s-1.75.86-2.69,1.24a20.59,20.59,0,0,1-2.82.92,10.4,10.4,0,0,1-2.55.36,4.38,4.38,0,0,1-3-1.07,8.82,8.82,0,0,1-2.06-2.63,13.21,13.21,0,0,1-1.22-3.32,14.28,14.28,0,0,1-.4-3.16,21.09,21.09,0,0,1,.8-5.68,35.17,35.17,0,0,1,2.08-5.65,44.61,44.61,0,0,1,2.86-5.24q1.58-2.49,3.09-4.42a35,35,0,0,1,3.79-4,37,37,0,0,1,4.54-3.58,28.57,28.57,0,0,1,4.63-2.55,10.54,10.54,0,0,1,4-1h1.88a17.93,17.93,0,0,1,2,.1,12.87,12.87,0,0,1,1.89.34,5.89,5.89,0,0,1,1.69.69,4,4,0,0,1,.88,1,12.75,12.75,0,0,1,.95,1.6,13.23,13.23,0,0,1,.73,1.77,4.59,4.59,0,0,1,.3,1.38,15,15,0,0,1-.63,3.71c-.45,1.93-.87,3.69-1.24,5.27a21,21,0,0,0-.57,4.9,9.82,9.82,0,0,0,.46,2.93,9.5,9.5,0,0,0,1.33,2.71,7.27,7.27,0,0,0,2.1,2,5.16,5.16,0,0,0,2.8.78,14.19,14.19,0,0,0,5.25-1.07,28.68,28.68,0,0,0,5.45-2.95,51.18,51.18,0,0,0,5.49-4.33q2.73-2.46,5.39-5.24l.73-.86c.35-.41.72-.81,1.1-1.22a14.1,14.1,0,0,1,1.11-1.09,1.53,1.53,0,0,1,.8-.49C522.76,223,523.05,223.62,523.05,224.77Zm-37.43-3.5c0-.47,0-1.06-.09-1.76a3.44,3.44,0,0,0-.55-1.73,1.28,1.28,0,0,0-1.13-.65c-.45,0-.9,0-1.35,0a8.77,8.77,0,0,0-2.84.47A12.08,12.08,0,0,0,477,218.9a18.44,18.44,0,0,0-2.5,1.89q-1.2,1.08-2.34,2.25a24.72,24.72,0,0,0-2,2.4c-.71.95-1.41,2-2.1,3.13s-1.35,2.33-2,3.58-1.2,2.48-1.68,3.7a30,30,0,0,0-1.14,3.53,13.09,13.09,0,0,0-.42,3.1,7.87,7.87,0,0,0,.11,1.11,7,7,0,0,0,.34,1.35,3.35,3.35,0,0,0,.63,1.11,1.23,1.23,0,0,0,1,.46,12.89,12.89,0,0,0,4.83-1.22,25.16,25.16,0,0,0,7.17-4.6,29,29,0,0,0,5.49-6.75A25.78,25.78,0,0,0,485.62,221.27Z" transform="translate(-357.11 -188.04)"/>
    <path d="M589.56,223.34a4.93,4.93,0,0,1-.28,1.62,13.16,13.16,0,0,1-.67,1.64,16.62,16.62,0,0,1-.9,1.59l-1,1.5a41,41,0,0,1-2.86,3.85q-1.65,2-3.51,3.8c-1.25,1.24-2.54,2.4-3.85,3.49a45.49,45.49,0,0,1-3.87,2.91l-2.88,1.89a21.45,21.45,0,0,1-2.76,1.51,16.86,16.86,0,0,1-2.9,1,13.36,13.36,0,0,1-3.33.38,8.77,8.77,0,0,1-5.67-1.76,8.31,8.31,0,0,1-1.92-2.3,18.42,18.42,0,0,1-1.43-3.13,31.41,31.41,0,0,1-1-3.66c-.29-1.29-.54-2.57-.74-3.83-.25-1.57-.49-3-.71-4.23a23,23,0,0,0-.78-3.15,5.64,5.64,0,0,0-1.07-2,2.12,2.12,0,0,0-1.64-.69,6.21,6.21,0,0,0-1.52.17,4.72,4.72,0,0,0-1.49.67,10.48,10.48,0,0,0-1.7,1.43c-.62.62-1.34,1.43-2.17,2.44s-1.77,2.24-2.84,3.7-2.31,3.2-3.74,5.22q-1,1.47-2.49,3.24c-1,1.17-1.92,2.3-2.92,3.36a34.47,34.47,0,0,1-2.92,2.82,7.84,7.84,0,0,1-2.53,1.56q-3.69-.81-3.7-9.22a67,67,0,0,1,.51-6.77c.17-1.37.36-2.81.59-4.31s.5-3,.84-4.5.72-3,1.15-4.38a28,28,0,0,1,1.54-3.93,5.3,5.3,0,0,1,.88-1.32,3.36,3.36,0,0,1,1-.72,3.25,3.25,0,0,1,1-.29,7.59,7.59,0,0,1,1.07-.07q.68,0,1.2.93a5.24,5.24,0,0,1,.53,2.57,10.3,10.3,0,0,1-.17,1.89,16.58,16.58,0,0,1-.46,1.81c-.2.61-.41,1.28-.64,2s-.44,1.54-.67,2.47l-.57,2.52c-.21.92-.4,1.86-.59,2.82s-.33,1.88-.46,2.8a19.14,19.14,0,0,0-.19,2.46,5.39,5.39,0,0,0,.25,1.55q1.18-.12,3.87-3.53,1.4-1.73,3.05-3.79c1.11-1.37,2.31-2.89,3.6-4.54q1.43-1.84,2.84-3.45a23.14,23.14,0,0,1,2.92-2.8,13.19,13.19,0,0,1,3.22-1.89,10,10,0,0,1,3.77-.69,6.51,6.51,0,0,1,3.63.94,6.9,6.9,0,0,1,2.34,2.61,15.2,15.2,0,0,1,1.37,4,50.45,50.45,0,0,1,.77,5.09c.17,1.57.33,3.12.49,4.67a16.6,16.6,0,0,0,.9,4.14,7.25,7.25,0,0,0,1.94,3,5.22,5.22,0,0,0,3.62,1.14,9.68,9.68,0,0,0,3.78-.84,24.17,24.17,0,0,0,4.17-2.34,50.3,50.3,0,0,0,4.52-3.51c1.55-1.34,3.16-2.82,4.81-4.42a24.65,24.65,0,0,0,2.13-2.33c.77-.94,1.53-1.84,2.27-2.71a29.64,29.64,0,0,1,2.08-2.23,2.7,2.7,0,0,1,1.56-.93,2.56,2.56,0,0,1,.82.25A.87.87,0,0,1,589.56,223.34Z" transform="translate(-357.11 -188.04)"/>
    <path d="M654.88,223.34a5.19,5.19,0,0,1-.27,1.62,13.66,13.66,0,0,1-1.58,3.23l-1,1.5a37.77,37.77,0,0,1-2.86,3.85q-1.63,2-3.51,3.8t-3.85,3.49a45.49,45.49,0,0,1-3.87,2.91l-2.88,1.89a21.35,21.35,0,0,1-2.75,1.51,17,17,0,0,1-2.91,1,13.28,13.28,0,0,1-3.32.38,8.8,8.8,0,0,1-5.68-1.76,8.12,8.12,0,0,1-1.91-2.3,17.67,17.67,0,0,1-1.43-3.13,31.41,31.41,0,0,1-1.05-3.66c-.3-1.29-.54-2.57-.74-3.83q-.37-2.35-.72-4.23a21.7,21.7,0,0,0-.77-3.15,5.81,5.81,0,0,0-1.08-2,2.11,2.11,0,0,0-1.64-.69,6.19,6.19,0,0,0-1.51.17,4.53,4.53,0,0,0-1.49.67,10.94,10.94,0,0,0-1.71,1.43c-.61.62-1.34,1.43-2.16,2.44s-1.78,2.24-2.84,3.7-2.32,3.2-3.75,5.22c-.7,1-1.53,2.06-2.48,3.24s-1.93,2.3-2.92,3.36a34.52,34.52,0,0,1-2.93,2.82,7.71,7.71,0,0,1-2.52,1.56q-3.71-.81-3.7-9.22,0-2.22.5-6.77c.17-1.37.37-2.81.59-4.31s.51-3,.84-4.5.73-3,1.16-4.38a26.79,26.79,0,0,1,1.54-3.93,5.3,5.3,0,0,1,.88-1.32,3.23,3.23,0,0,1,.95-.72,3.19,3.19,0,0,1,1-.29,7.73,7.73,0,0,1,1.08-.07q.68,0,1.2.93a5.24,5.24,0,0,1,.52,2.57,9.49,9.49,0,0,1-.17,1.89,14.57,14.57,0,0,1-.46,1.81c-.2.61-.41,1.28-.63,2s-.45,1.54-.67,2.47l-.57,2.52c-.21.92-.41,1.86-.59,2.82s-.34,1.88-.46,2.8a17.49,17.49,0,0,0-.19,2.46,5.07,5.07,0,0,0,.25,1.55q1.18-.12,3.87-3.53l3-3.79c1.11-1.37,2.31-2.89,3.6-4.54q1.43-1.84,2.84-3.45a23.14,23.14,0,0,1,2.92-2.8,13,13,0,0,1,3.22-1.89,9.91,9.91,0,0,1,3.76-.69,6.54,6.54,0,0,1,3.64.94,6.9,6.9,0,0,1,2.34,2.61,15.21,15.21,0,0,1,1.36,4,50.32,50.32,0,0,1,.78,5.09c.17,1.57.33,3.12.48,4.67a17.05,17.05,0,0,0,.91,4.14,7.23,7.23,0,0,0,1.93,3,5.24,5.24,0,0,0,3.62,1.14,9.69,9.69,0,0,0,3.79-.84,24.11,24.11,0,0,0,4.16-2.34,47.62,47.62,0,0,0,4.52-3.51c1.56-1.34,3.17-2.82,4.82-4.42a26.13,26.13,0,0,0,2.12-2.33c.78-.94,1.53-1.84,2.28-2.71a27.71,27.71,0,0,1,2.08-2.23,2.65,2.65,0,0,1,1.55-.93,2.49,2.49,0,0,1,.82.25A.87.87,0,0,1,654.88,223.34Z" transform="translate(-357.11 -188.04)"/>
    <path d="M699.47,224.39a5.79,5.79,0,0,1-.92,2.23,78.91,78.91,0,0,1-4.91,6.31,72.32,72.32,0,0,1-5.76,6,75.85,75.85,0,0,1-6.35,5.3,51.37,51.37,0,0,1-6.67,4.25,34.78,34.78,0,0,1-6.71,2.75,21.87,21.87,0,0,1-6.45.93q-6.74,0-10.46-3.91t-3.72-11.82a41,41,0,0,1,2-12.83,35.57,35.57,0,0,1,7-12A18.73,18.73,0,0,1,661,208a14.27,14.27,0,0,1,2.65-1.13,12.08,12.08,0,0,1,2.76-.51,6.72,6.72,0,0,1,.93.09,7.5,7.5,0,0,1,1.26.29,8.64,8.64,0,0,1,1.3.53,3,3,0,0,1,1,.78,12.17,12.17,0,0,1,1.87,2.77,8,8,0,0,1,.78,3.16,11.89,11.89,0,0,1-.44,3.8,14.36,14.36,0,0,1-1.77,3.83,24.79,24.79,0,0,1-3.26,4,63.17,63.17,0,0,1-4.88,4.48q-1.8,1.51-4,3.34a56.54,56.54,0,0,1-5.33,3.85,7.77,7.77,0,0,0,2.47,6.21,10,10,0,0,0,6.75,2.12A19.18,19.18,0,0,0,668,245a31.34,31.34,0,0,0,4.8-1.66,39.35,39.35,0,0,0,4.56-2.36q2.22-1.32,4.15-2.71,3.57-2.61,6.48-5.19c1.93-1.73,3.85-3.54,5.76-5.45L696,225.4c1.37-1.21,2.37-1.81,3-1.81C699.3,223.59,699.47,223.85,699.47,224.39ZM667.33,216a6.4,6.4,0,0,0-.19-1.24,3.27,3.27,0,0,0-.44-1.08A2.5,2.5,0,0,0,666,213a1.42,1.42,0,0,0-.88-.28c-1.49.09-3,1-4.46,2.72a29.46,29.46,0,0,0-4.21,6.83,13.87,13.87,0,0,0-.82,2.08c-.24.78-.46,1.56-.67,2.36s-.4,1.59-.55,2.38-.29,1.48-.4,2.1l4-3c1.23-.92,2.38-1.88,3.45-2.86.67-.62,1.36-1.28,2.06-2A19.27,19.27,0,0,0,665.5,221a11,11,0,0,0,1.37-2.44A6.17,6.17,0,0,0,667.33,216Z" transform="translate(-357.11 -188.04)"/>
    <path d="M733.58,219.47c0,.16,0,.41,0,.73a4.21,4.21,0,0,1-.21,1,4,4,0,0,1-.4.86.69.69,0,0,1-.61.38l-.84,0-1.24-.06-1.24-.07-.84,0a19.94,19.94,0,0,0-13.38,5.89,45.19,45.19,0,0,0-9.08,14.05c-.48,1.21-1,2.45-1.41,3.74s-.91,2.65-1.33,4.08a19.91,19.91,0,0,0-.48,2.09A12,12,0,0,1,702,254c0,.23-.29.44-.71.65a10.34,10.34,0,0,1-1.41.57c-.52.17-1,.31-1.49.42a5.55,5.55,0,0,1-1,.17c-1.94.11-3-1.89-3.28-6-.09-1.12-.12-2.13-.11-3s.05-1.79.11-2.65.13-1.75.23-2.69.2-2,.32-3.17c.14-1.46.3-3.14.5-5s.42-3.83.67-5.76.52-3.78.8-5.54a43.51,43.51,0,0,1,.89-4.35,6.84,6.84,0,0,1,1.28-2.94,3.23,3.23,0,0,1,2.42-1.06,2,2,0,0,1,.9.24,3.28,3.28,0,0,1,.89.61,4.19,4.19,0,0,1,.67.8,1.76,1.76,0,0,1,.31.75,20.09,20.09,0,0,1,0,2.3c-.05.82-.15,1.68-.29,2.56s-.31,1.77-.51,2.67-.39,1.75-.59,2.57c-.39,1.6-.69,3-.9,4.1s-.39,2.24-.53,3.3-.28,2.21-.42,3.43-.32,2.73-.54,4.52c.47-1.06.89-2,1.24-2.73s.66-1.43.94-2,.54-1.09.78-1.54l.78-1.41.92-1.61c.34-.59.76-1.31,1.27-2.15a35.73,35.73,0,0,1,6.31-8,23.88,23.88,0,0,1,6.47-4.44,16.66,16.66,0,0,1,5.81-1.81,18,18,0,0,1,2.61.13,13.86,13.86,0,0,1,2.9.63,8.43,8.43,0,0,1,2.38,1.2A2.15,2.15,0,0,1,733.58,219.47Z" transform="translate(-357.11 -188.04)"/>
  </g>
</svg>
